# xmcd CD database file
# Copyright (C) 1995-1998 Ti Kan
#
# Track frame offsets:
#	150
#	14361
#	49024
#	59014
#	73448
#	83048
#	100700
#	116054
#	125904
#	140770
#	163730
#	180644
#
# Disc length: 2631 seconds
#
# Revision: 3
# Processed by: cddbd v1.4PL0 Copyright (c) Steve Scherf et al.
# Submitted via: CDex 1.30Release
#
DISCID=b50a450c
DTITLE=The Prairie Crooners - Cowboys Roost
DYEAR=1900
DGENRE=Country
TTITLE0=Ridin Down the Canyon
TTITLE1=Cool Water/Ghost Riders/Tumbleweeds
TTITLE2=Mariah
TTITLE3=Son of New Mexico
TTITLE4=Chime Bells
TTITLE5=Tears down the face of the Wasatch Range
TTITLE6=Colorado Sky
TTITLE7=Pay Day
TTITLE8=Blue Shadows
TTITLE9=Roundup in the Spring/Cattle Call
TTITLE10=Weber River
TTITLE11=Great American Cowboy
EXTD=ID3G:   2
EXTT0=
EXTT1=
EXTT2=
EXTT3=
EXTT4=
EXTT5=
EXTT6=
EXTT7=
EXTT8=
EXTT9=
EXTT10=
EXTT11=
PLAYORDER=
